<svg xmlns="http://www.w3.org/2000/svg" width="334" height="20" viewBox="0 0 334 20"><g fill="none" fill-rule="evenodd"><path fill="#CF3339" d="M170.21 8.295h-5.092V4.878h5.6c.509 0 1.223.053 1.73.553.355.301.51.752.51 1.204 0 1.66-1.731 1.66-2.748 1.66zm5.14 3.566c.815-.203 2.088-.45 3.157-1.708.763-.956 1.225-2.263 1.225-3.567 0-1.858-.866-3.717-2.242-4.724C175.913.708 173.873.66 172.194.66h-13.848v18.635h6.772v-6.783h3.613l3.869 6.783h7.488l-4.737-7.434zm-28.155 3.47c-.815.4-1.782.499-2.698.499-4.126 0-5.704-2.965-5.704-5.88 0-2.559 1.423-5.874 5.704-5.825 4.581.049 5.496 3.82 5.496 5.824 0 1.912-.712 4.325-2.798 5.382zm3.92-14.27c-2.191-.854-4.684-1.106-7.028-1.055-3.358.05-7.841.655-10.488 4.318-1.222 1.71-1.784 3.77-1.784 5.877 0 2.113.562 3.918 1.835 5.629 1.376 1.859 4.074 4.17 10.641 4.17 3.463 0 6.467-.504 9.063-2.513.92-.704 1.683-1.505 2.243-2.51.914-1.509 1.374-3.319 1.374-5.078 0-3.164-1.528-7.08-5.856-8.838zm-38.037 18.234h6.774v-6.682h10.792V8.445h-10.792V4.878h11.761V.66h-18.535v18.635z"/><path fill="#00303C" d="M239.831 12.2h12.096V7.999h-12.044V4.95h13.056V.802h-19.785V19.35h20.037v-4.198h-13.36V12.2zm-22.514.699L212.557.802h-8.9V19.35h6.621V7.5l4.357 11.85h5.211l4.45-11.903V19.35h6.63V.802h-8.856l-4.753 12.097zm102.566-.698l2.175-6.25 2.224 6.25h-4.399zm5.97-11.4h-7.642l-8.095 18.549h7.385l1.014-3.048h7.139l1.007 3.048H334L325.854.802zm-58.75 7.6h-5.058V5h5.568c.507 0 1.215.052 1.72.5.356.349.503.798.503 1.2 0 1.65-1.716 1.7-2.733 1.7zm8.251 1.796c.754-.897 1.211-2.198 1.211-3.497 0-1.899-.859-3.7-2.223-4.7-1.57-1.15-3.593-1.198-5.213-1.198h-13.814V19.35h6.73v-6.751h3.594l3.842 6.75h7.44l-4.704-7.4c.81-.2 2.075-.5 3.137-1.752zm-86.274 2.004l2.177-6.25 2.223 6.25h-4.4zM187.41.8l-8.094 18.549h7.383l1.015-3.048h7.138l1.008 3.048h7.338L195.05.802h-7.642zm91.285 18.549h6.725V.802h-6.725V19.35zM304.7 12.7c-.202.55-.453 1.15-1.363 1.85-.965.8-2.33 1.251-3.796 1.251-3.845 0-5.515-2.902-5.515-5.753 0-3.897 2.73-5.797 5.765-5.797.91 0 2.178.198 3.191.85 1.009.648 1.313 1.348 1.563 1.85l6.227-1.101C310.167 4.1 308.75 0 299.59 0c-10.676 0-12.597 6.5-12.597 10.101 0 5.1 3.188 8 7.082 9.198 1.718.502 3.493.701 5.362.701 4.102 0 8.404-.948 10.626-4.35.609-.95.865-1.603 1.063-2.297l-6.425-.653zM0 4.95h6.68v14.4h6.783V4.95h6.626V.752H0v4.2zm28.593 7.252h12.09V7.999h-12.09V4.95h13.051V.802h-19.78v18.549h20.085v-4.198H28.593v-2.951zm75.493-4.6h-8.198v-6.8H89.11v18.55h6.778V12.25h8.198v7.102h6.78V.802h-6.78v6.8zM51.715 12.25l2.177-6.3 2.174 6.3h-4.351zM49.995.802L41.948 19.35h7.337l1.012-3.001h7.184l1.014 3h7.337L57.687.803h-7.693zm30.21 13.747c-.963.801-2.329 1.252-3.799 1.252-3.842 0-5.513-2.904-5.513-5.753 0-3.897 2.732-5.798 5.718-5.798.96 0 2.225.2 3.238.85 1.01.648 1.314 1.349 1.568 1.85l6.225-1.1C87.037 4.1 85.617 0 76.457 0 65.783 0 63.86 6.502 63.86 10.101c0 5.1 3.187 8 7.034 9.198 1.77.55 3.54.701 5.414.701 4.098 0 8.401-.949 10.625-4.348.608-.9.86-1.603 1.063-2.301l-6.427-.65c-.202.549-.454 1.148-1.363 1.848z"/></g></svg>